<svg t="1723853726183" class="icon" viewBox="0 0 1024 1024" version="1.1" xmlns="http://www.w3.org/2000/svg" p-id="8339" width="48" height="48"><path d="M810.656 629.344h-256l42.562-149.156 170.814-0.064z" fill="#AAB2BC" p-id="8340"></path><path d="M384 501.344c-11.75 0-21.344-9.562-21.344-21.344V74.688c0-11.782 9.594-21.344 21.344-21.344h597.344c11.75 0 21.312 9.562 21.312 21.344V480c0 11.782-9.562 21.344-21.312 21.344H384z" fill="#4A89DC" p-id="8341"></path><path d="M981.344 32H384c-23.562 0-42.656 19.124-42.656 42.688V480c0 23.594 19.094 42.688 42.656 42.688h597.344c23.562 0 42.656-19.094 42.656-42.688V74.688C1024 51.124 1004.906 32 981.344 32z m0 448H384V74.688h597.344V480z" fill="#CCD1D9" p-id="8342"></path><path d="M373.218 437.344h618.876v62.124H373.218z" fill="#CCD1D9" p-id="8343"></path><path d="M704 480c0 11.812-9.562 21.344-21.344 21.344s-21.312-9.532-21.312-21.344c0-11.782 9.532-21.312 21.312-21.312S704 468.218 704 480z" fill="#434A54" p-id="8344"></path><path d="M810.656 586.688h-256A21.3 21.3 0 0 0 533.344 608c0 11.812 9.532 21.344 21.312 21.344h256c11.782 0 21.344-9.532 21.344-21.344 0-11.782-9.562-21.312-21.344-21.312z" fill="#CCD1D9" p-id="8345"></path><path d="M720 437.344h-122.656l128-362.656h122.624z" fill="#FFFFFF" opacity=".1" p-id="8346"></path><path d="M960 608c11.782 0 21.344-9.532 21.344-21.312s-9.562-21.344-21.344-21.344-21.344 9.562-21.344 21.344S948.218 608 960 608zM960 650.688c-11.782 0-21.344 9.532-21.344 21.312s9.562 21.344 21.344 21.344 21.344-9.562 21.344-21.344-9.562-21.312-21.344-21.312zM960 736c-11.782 0-21.344 9.562-21.344 21.344s9.562 21.344 21.344 21.344 21.344-9.562 21.344-21.344S971.782 736 960 736zM960 821.344c-11.782 0-21.344 9.562-21.344 21.344S948.218 864 960 864s21.344-9.532 21.344-21.312-9.562-21.344-21.344-21.344zM960 906.688c-11.782 0-21.344 9.532-21.344 21.312s9.562 21.344 21.344 21.344 21.344-9.562 21.344-21.344-9.562-21.312-21.344-21.312zM874.656 906.688c-11.782 0-21.312 9.532-21.312 21.312s9.532 21.344 21.312 21.344S896 939.782 896 928s-9.562-21.312-21.344-21.312zM789.344 906.688C777.562 906.688 768 916.22 768 928s9.562 21.344 21.344 21.344 21.312-9.562 21.312-21.344-9.532-21.312-21.312-21.312zM704 906.688c-11.782 0-21.344 9.532-21.344 21.312s9.562 21.344 21.344 21.344 21.344-9.562 21.344-21.344-9.562-21.312-21.344-21.312zM618.656 906.688c-11.782 0-21.312 9.532-21.312 21.312s9.532 21.344 21.312 21.344S640 939.782 640 928s-9.562-21.312-21.344-21.312zM533.344 906.688C521.562 906.688 512 916.22 512 928s9.562 21.344 21.344 21.344 21.312-9.562 21.312-21.344-9.532-21.312-21.312-21.312z" fill="#5D9CEC" p-id="8347"></path><path d="M469.344 992h-256l42.532-149.156 170.842-0.062z" fill="#CCD1D9" p-id="8348"></path><path d="M42.656 864c-11.75 0-21.312-9.562-21.312-21.312V437.344c0-11.75 9.562-21.344 21.312-21.344H640c11.75 0 21.344 9.594 21.344 21.344v405.344c0 11.75-9.594 21.312-21.344 21.312H42.656z" fill="#5D9CEC" p-id="8349"></path><path d="M640 394.688H42.656C19.094 394.688 0 413.782 0 437.344v405.344c0 23.562 19.094 42.656 42.656 42.656H640c23.562 0 42.656-19.094 42.656-42.656V437.344c0-23.562-19.094-42.656-42.656-42.656z m0 448H42.656V437.344H640v405.344z" fill="#E6E9ED" p-id="8350"></path><path d="M31.906 800h618.876v62.124H31.906z" fill="#E6E9ED" p-id="8351"></path><path d="M362.656 842.688c0 11.782-9.532 21.312-21.312 21.312S320 854.468 320 842.688s9.562-21.344 21.344-21.344 21.312 9.562 21.312 21.344z" fill="#434A54" p-id="8352"></path><path d="M469.344 949.344h-256c-11.782 0-21.344 9.562-21.344 21.344S201.562 992 213.344 992h256c11.782 0 21.312-9.532 21.312-21.312s-9.532-21.344-21.312-21.344z" fill="#E6E9ED" p-id="8353"></path><path d="M378.656 800H256l128-362.656h122.656z" fill="#FFFFFF" opacity=".1" p-id="8354"></path></svg>